<svg width="50" height="50" viewBox="0 0 256 256" fill="none" xmlns="http://www.w3.org/2000/svg">
<path d="M128.028 14.2222C105.525 14.2222 83.5269 20.8952 64.8163 33.3972C46.1056 45.8993 31.5224 63.669 22.9109 84.4591C14.2993 105.249 12.0461 128.126 16.4363 150.197C20.8264 172.268 31.6627 192.541 47.5748 208.453C63.4869 224.365 83.7601 235.201 105.831 239.592C127.902 243.982 150.778 241.729 171.569 233.117C192.359 224.505 210.128 209.922 222.631 191.212C235.133 172.501 241.806 150.503 241.806 128C241.806 97.8243 229.818 68.8844 208.481 47.547C187.143 26.2095 158.204 14.2222 128.028 14.2222ZM128.028 227.556C108.338 227.556 89.0895 221.717 72.7177 210.777C56.3459 199.838 43.5856 184.29 36.0505 166.098C28.5154 147.907 26.5438 127.89 30.3852 108.578C34.2266 89.2658 43.7083 71.5267 57.6314 57.6036C71.5545 43.6805 89.2936 34.1987 108.605 30.3574C127.917 26.516 147.935 28.4875 166.126 36.0227C184.317 43.5578 199.866 56.3181 210.805 72.6899C221.745 89.0617 227.583 108.31 227.583 128C227.583 154.404 217.094 179.726 198.424 198.396C179.754 217.067 154.432 227.556 128.028 227.556Z" fill="#E09211"/>
<path d="M199.145 86.0445C197.813 84.72 196.011 83.9766 194.132 83.9766C192.253 83.9766 190.451 84.72 189.119 86.0445L110.185 164.622L67.5187 121.956C66.2174 120.55 64.4112 119.72 62.4975 119.647C60.5838 119.573 58.7193 120.263 57.3143 121.564C55.9092 122.866 55.0787 124.672 55.0053 126.586C54.932 128.499 55.6218 130.364 56.9232 131.769L110.185 184.889L199.145 96.1422C199.812 95.4812 200.341 94.6947 200.702 93.8281C201.063 92.9616 201.249 92.0321 201.249 91.0933C201.249 90.1546 201.063 89.2251 200.702 88.3586C200.341 87.492 199.812 86.7055 199.145 86.0445Z" fill="#E09211"/>
</svg>
